<svg width="54" height="58" viewBox="0 0 54 58" fill="none" xmlns="http://www.w3.org/2000/svg">
<mask id="path-1-inside-1_538_835" fill="white">
<path d="M53.7779 19.2141V20.5586H52.3773C52.3399 20.7827 52.2652 21.0255 52.1532 21.287L53.3857 22.0153L52.7134 23.1357L51.4809 22.4635C51.3315 22.6502 51.1634 22.8183 50.9767 22.9677L51.649 24.2002L50.5285 24.8725L49.8002 23.64C49.5761 23.752 49.3333 23.8267 49.0719 23.864V25.2646H47.7273V23.864C47.5032 23.8267 47.2605 23.752 46.999 23.64L46.2707 24.8725L45.1502 24.2002L45.8225 22.9677C45.6358 22.8183 45.4677 22.6502 45.3183 22.4635L44.0858 23.1357L43.4135 22.0153L44.646 21.287C44.534 21.0629 44.4593 20.8201 44.4219 20.5586H43.0213V19.2141H44.4219C44.4593 18.99 44.534 18.7472 44.646 18.4858L43.4135 17.7575L44.0858 16.637L45.3183 17.3093C45.4677 17.1225 45.6358 16.9545 45.8225 16.8051L45.1502 15.5725L46.2707 14.9003L46.999 16.1328C47.2231 16.0207 47.4659 15.946 47.7273 15.9087V14.5081H49.0719V15.9087C49.296 15.946 49.5388 16.0207 49.8002 16.1328L50.5285 14.9003L51.649 15.5725L50.9767 16.8051C51.1634 16.9545 51.3315 17.1225 51.4809 17.3093L52.7134 16.637L53.3857 17.7575L52.1532 18.4858C52.2652 18.7472 52.3399 18.99 52.3773 19.2141H53.7779ZM48.3996 17.1972C47.6526 17.1972 47.0177 17.4587 46.4948 17.9816C45.9719 18.5044 45.7105 19.1394 45.7105 19.8864C45.7105 20.6333 45.9719 21.2683 46.4948 21.7912C47.0177 22.3141 47.6526 22.5755 48.3996 22.5755C49.1466 22.5755 49.7815 22.3141 50.3044 21.7912C50.8273 21.2683 51.0887 20.6333 51.0887 19.8864C51.0887 19.1394 50.8273 18.5044 50.3044 17.9816C49.7815 17.4587 49.1466 17.1972 48.3996 17.1972ZM36.2425 31.6513L38.6515 33.0519L37.3069 35.4049L34.8979 34.0043C34.5618 34.3778 34.2069 34.7327 33.8334 35.0688L35.234 37.4778L32.881 38.8224L31.4804 36.4134C30.9949 36.6001 30.5094 36.7308 30.0238 36.8055V39.6067H27.3347V36.8055C26.8865 36.7308 26.401 36.6001 25.8781 36.4134L24.4775 38.8224L22.1245 37.4778L23.5811 35.0688C23.1703 34.7327 22.8154 34.3778 22.5167 34.0043L20.0516 35.4049L18.707 33.0519L21.1161 31.6513C20.9293 31.1658 20.7986 30.6803 20.7239 30.1947H17.9227V27.5056H20.7239C20.7986 27.0574 20.9293 26.5719 21.1161 26.049L18.707 24.6484L20.0516 22.2954L22.5167 23.752C22.8154 23.3412 23.1703 22.9863 23.5811 22.6876L22.1245 20.2225L24.4775 18.8779L25.8781 21.287C26.3636 21.1002 26.8492 20.9695 27.3347 20.8948V18.0936H30.0238V20.8948C30.472 20.9695 30.9576 21.1002 31.4804 21.287L32.881 18.8779L35.234 20.2225L33.8334 22.6876C34.1696 22.9863 34.5244 23.3412 34.8979 23.752L37.3069 22.2954L38.6515 24.6484L36.2425 26.049C36.4292 26.5345 36.5599 27.0201 36.6346 27.5056H39.4358V30.1947H36.6346C36.5599 30.6429 36.4292 31.1285 36.2425 31.6513ZM28.6793 23.4719C27.1853 23.4719 25.9154 23.9948 24.8696 25.0405C23.8239 26.0863 23.301 27.3562 23.301 28.8502C23.301 30.3441 23.8239 31.614 24.8696 32.6598C25.9154 33.7055 27.1853 34.2284 28.6793 34.2284C30.1732 34.2284 31.4431 33.7055 32.4889 32.6598C33.5346 31.614 34.0575 30.3441 34.0575 28.8502C34.0575 27.3562 33.5346 26.0863 32.4889 25.0405C31.4431 23.9948 30.1732 23.4719 28.6793 23.4719ZM28.6793 14.5081C24.7203 14.5081 21.3402 15.9087 18.539 18.7099C15.7378 21.5111 14.3372 24.8911 14.3372 28.8502C14.3372 32.8092 15.7378 36.1893 18.539 38.9905C21.3402 41.7916 24.7203 43.1922 28.6793 43.1922C30.6588 43.1922 32.5449 42.8001 34.3377 42.0157L37.1388 48.5705C35.4955 49.2801 33.8708 49.7657 32.2648 50.0271V57.5343H25.0937V50.0271C23.8986 49.8404 22.61 49.4856 21.2281 48.9627L17.4185 55.4614L11.2559 51.8759L15.0095 45.3772C14.001 44.5181 13.0486 43.5657 12.1523 42.5199L5.65351 46.2735L2.06799 40.1109L8.51072 36.3573C8.06253 35.0501 7.72639 33.7429 7.5023 32.4357H-0.00488281V25.2646H7.5023C7.72639 23.9574 8.06253 22.6502 8.51072 21.343L2.06799 17.5894L5.65351 11.4268L12.1523 15.1804C13.0486 14.1346 14.001 13.1822 15.0095 12.3232L11.2559 5.82441L17.4185 2.23889L21.2281 8.73764C22.61 8.21476 23.8986 7.85994 25.0937 7.67319V0.166016H32.2648V7.67319C33.9081 7.93464 35.5328 8.42018 37.1388 9.12981L34.3377 15.6846C32.5449 14.9003 30.6588 14.5081 28.6793 14.5081Z"/>
</mask>
<path d="M53.7779 19.2141V20.5586H52.3773C52.3399 20.7827 52.2652 21.0255 52.1532 21.287L53.3857 22.0153L52.7134 23.1357L51.4809 22.4635C51.3315 22.6502 51.1634 22.8183 50.9767 22.9677L51.649 24.2002L50.5285 24.8725L49.8002 23.64C49.5761 23.752 49.3333 23.8267 49.0719 23.864V25.2646H47.7273V23.864C47.5032 23.8267 47.2605 23.752 46.999 23.64L46.2707 24.8725L45.1502 24.2002L45.8225 22.9677C45.6358 22.8183 45.4677 22.6502 45.3183 22.4635L44.0858 23.1357L43.4135 22.0153L44.646 21.287C44.534 21.0629 44.4593 20.8201 44.4219 20.5586H43.0213V19.2141H44.4219C44.4593 18.99 44.534 18.7472 44.646 18.4858L43.4135 17.7575L44.0858 16.637L45.3183 17.3093C45.4677 17.1225 45.6358 16.9545 45.8225 16.8051L45.1502 15.5725L46.2707 14.9003L46.999 16.1328C47.2231 16.0207 47.4659 15.946 47.7273 15.9087V14.5081H49.0719V15.9087C49.296 15.946 49.5388 16.0207 49.8002 16.1328L50.5285 14.9003L51.649 15.5725L50.9767 16.8051C51.1634 16.9545 51.3315 17.1225 51.4809 17.3093L52.7134 16.637L53.3857 17.7575L52.1532 18.4858C52.2652 18.7472 52.3399 18.99 52.3773 19.2141H53.7779ZM48.3996 17.1972C47.6526 17.1972 47.0177 17.4587 46.4948 17.9816C45.9719 18.5044 45.7105 19.1394 45.7105 19.8864C45.7105 20.6333 45.9719 21.2683 46.4948 21.7912C47.0177 22.3141 47.6526 22.5755 48.3996 22.5755C49.1466 22.5755 49.7815 22.3141 50.3044 21.7912C50.8273 21.2683 51.0887 20.6333 51.0887 19.8864C51.0887 19.1394 50.8273 18.5044 50.3044 17.9816C49.7815 17.4587 49.1466 17.1972 48.3996 17.1972ZM36.2425 31.6513L38.6515 33.0519L37.3069 35.4049L34.8979 34.0043C34.5618 34.3778 34.2069 34.7327 33.8334 35.0688L35.234 37.4778L32.881 38.8224L31.4804 36.4134C30.9949 36.6001 30.5094 36.7308 30.0238 36.8055V39.6067H27.3347V36.8055C26.8865 36.7308 26.401 36.6001 25.8781 36.4134L24.4775 38.8224L22.1245 37.4778L23.5811 35.0688C23.1703 34.7327 22.8154 34.3778 22.5167 34.0043L20.0516 35.4049L18.707 33.0519L21.1161 31.6513C20.9293 31.1658 20.7986 30.6803 20.7239 30.1947H17.9227V27.5056H20.7239C20.7986 27.0574 20.9293 26.5719 21.1161 26.049L18.707 24.6484L20.0516 22.2954L22.5167 23.752C22.8154 23.3412 23.1703 22.9863 23.5811 22.6876L22.1245 20.2225L24.4775 18.8779L25.8781 21.287C26.3636 21.1002 26.8492 20.9695 27.3347 20.8948V18.0936H30.0238V20.8948C30.472 20.9695 30.9576 21.1002 31.4804 21.287L32.881 18.8779L35.234 20.2225L33.8334 22.6876C34.1696 22.9863 34.5244 23.3412 34.8979 23.752L37.3069 22.2954L38.6515 24.6484L36.2425 26.049C36.4292 26.5345 36.5599 27.0201 36.6346 27.5056H39.4358V30.1947H36.6346C36.5599 30.6429 36.4292 31.1285 36.2425 31.6513ZM28.6793 23.4719C27.1853 23.4719 25.9154 23.9948 24.8696 25.0405C23.8239 26.0863 23.301 27.3562 23.301 28.8502C23.301 30.3441 23.8239 31.614 24.8696 32.6598C25.9154 33.7055 27.1853 34.2284 28.6793 34.2284C30.1732 34.2284 31.4431 33.7055 32.4889 32.6598C33.5346 31.614 34.0575 30.3441 34.0575 28.8502C34.0575 27.3562 33.5346 26.0863 32.4889 25.0405C31.4431 23.9948 30.1732 23.4719 28.6793 23.4719ZM28.6793 14.5081C24.7203 14.5081 21.3402 15.9087 18.539 18.7099C15.7378 21.5111 14.3372 24.8911 14.3372 28.8502C14.3372 32.8092 15.7378 36.1893 18.539 38.9905C21.3402 41.7916 24.7203 43.1922 28.6793 43.1922C30.6588 43.1922 32.5449 42.8001 34.3377 42.0157L37.1388 48.5705C35.4955 49.2801 33.8708 49.7657 32.2648 50.0271V57.5343H25.0937V50.0271C23.8986 49.8404 22.61 49.4856 21.2281 48.9627L17.4185 55.4614L11.2559 51.8759L15.0095 45.3772C14.001 44.5181 13.0486 43.5657 12.1523 42.5199L5.65351 46.2735L2.06799 40.1109L8.51072 36.3573C8.06253 35.0501 7.72639 33.7429 7.5023 32.4357H-0.00488281V25.2646H7.5023C7.72639 23.9574 8.06253 22.6502 8.51072 21.343L2.06799 17.5894L5.65351 11.4268L12.1523 15.1804C13.0486 14.1346 14.001 13.1822 15.0095 12.3232L11.2559 5.82441L17.4185 2.23889L21.2281 8.73764C22.61 8.21476 23.8986 7.85994 25.0937 7.67319V0.166016H32.2648V7.67319C33.9081 7.93464 35.5328 8.42018 37.1388 9.12981L34.3377 15.6846C32.5449 14.9003 30.6588 14.5081 28.6793 14.5081Z" fill="white" stroke="white" stroke-width="0.0234375" mask="url(#path-1-inside-1_538_835)"/>
</svg>
