<svg width="61" height="61" viewBox="0 0 61 61" fill="none" xmlns="http://www.w3.org/2000/svg">
<path d="M40.2285 60.3271H20.5082V32.7171C20.5082 32.1941 20.716 31.6924 21.0858 31.3226C21.4556 30.9527 21.9572 30.745 22.4802 30.745H38.2565C38.7795 30.745 39.2811 30.9527 39.6509 31.3226C40.0208 31.6924 40.2285 32.1941 40.2285 32.7171V60.3271ZM57.9769 60.3271H40.2285V50.7951C40.2285 50.272 40.4363 49.7704 40.8061 49.4005C41.176 49.0307 41.6776 48.8229 42.2006 48.8229H57.9769C58.4999 48.8229 59.0015 49.0307 59.3713 49.4005C59.7411 49.7704 59.9489 50.272 59.9489 50.7951V58.3549C59.9489 58.878 59.7411 59.3796 59.3713 59.7494C59.0015 60.1193 58.4999 60.3271 57.9769 60.3271ZM20.5082 60.3271V44.2213C20.5082 43.6982 20.3004 43.1966 19.9306 42.8267C19.5608 42.4569 19.0592 42.2491 18.5362 42.2491H2.75988C2.23686 42.2491 1.73527 42.4569 1.36544 42.8267C0.995609 43.1966 0.787842 43.6982 0.787842 44.2213V58.3549C0.787842 58.878 0.995609 59.3796 1.36544 59.7494C1.73527 60.1193 2.23686 60.3271 2.75988 60.3271H20.5082ZM26.444 8.10808L29.4317 1.77422C29.5123 1.59316 29.6437 1.43934 29.81 1.3314C29.9762 1.22346 30.1702 1.16602 30.3684 1.16602C30.5666 1.16602 30.7605 1.22346 30.9268 1.3314C31.093 1.43934 31.2244 1.59316 31.3051 1.77422L34.296 8.10808L40.9746 9.1303C41.8325 9.26178 42.1743 10.3662 41.5531 10.9973L36.7216 15.9276L37.8621 22.8893C38.0067 23.7833 37.1127 24.467 36.3436 24.043L30.3684 20.7561L24.3931 24.043C23.6273 24.4637 22.73 23.7833 22.8746 22.8893L24.0151 15.9276L19.1836 10.9973C18.5592 10.3662 18.9043 9.26178 19.7588 9.1303L26.444 8.10808Z" fill="white"/>
<path d="M40.2285 60.3271H20.5082M40.2285 60.3271V32.7171C40.2285 32.1941 40.0208 31.6924 39.6509 31.3226C39.2811 30.9527 38.7795 30.745 38.2565 30.745H22.4802C21.9572 30.745 21.4556 30.9527 21.0858 31.3226C20.716 31.6924 20.5082 32.1941 20.5082 32.7171V60.3271M40.2285 60.3271H57.9769C58.4999 60.3271 59.0015 60.1193 59.3713 59.7494C59.7411 59.3796 59.9489 58.878 59.9489 58.3549V50.7951C59.9489 50.272 59.7411 49.7704 59.3713 49.4005C59.0015 49.0307 58.4999 48.8229 57.9769 48.8229H42.2006C41.6776 48.8229 41.176 49.0307 40.8061 49.4005C40.4363 49.7704 40.2285 50.272 40.2285 50.7951V60.3271ZM20.5082 60.3271V44.2213C20.5082 43.6982 20.3004 43.1966 19.9306 42.8267C19.5608 42.4569 19.0592 42.2491 18.5362 42.2491H2.75988C2.23686 42.2491 1.73527 42.4569 1.36544 42.8267C0.995609 43.1966 0.787842 43.6982 0.787842 44.2213V58.3549C0.787842 58.878 0.995609 59.3796 1.36544 59.7494C1.73527 60.1193 2.23686 60.3271 2.75988 60.3271H20.5082ZM26.444 8.10808L29.4317 1.77422C29.5123 1.59316 29.6437 1.43934 29.81 1.3314C29.9762 1.22346 30.1702 1.16602 30.3684 1.16602C30.5666 1.16602 30.7605 1.22346 30.9268 1.3314C31.093 1.43934 31.2244 1.59316 31.3051 1.77422L34.296 8.10808L40.9746 9.1303C41.8325 9.26178 42.1743 10.3662 41.5531 10.9973L36.7216 15.9276L37.8621 22.8893C38.0067 23.7833 37.1127 24.467 36.3436 24.043L30.3684 20.7561L24.3931 24.043C23.6273 24.4637 22.73 23.7833 22.8746 22.8893L24.0151 15.9276L19.1836 10.9973C18.5592 10.3662 18.9043 9.26178 19.7588 9.1303L26.444 8.10808Z" stroke="#5FC9D8" stroke-linecap="round" stroke-linejoin="round"/>
</svg>
