<svg width="60" height="60" viewBox="0 0 60 60" fill="none" xmlns="http://www.w3.org/2000/svg">
<path d="M39.5104 59.327C36.8212 59.3316 34.2244 58.3457 32.2156 56.5577V40.8398H39.6103C41.0811 40.8398 42.4918 40.2555 43.5319 39.2154C44.5719 38.1753 45.1562 36.7646 45.1562 35.2937V33.1307C46.3897 32.6946 47.4293 31.8365 48.0912 30.708C48.7532 29.5795 48.9949 28.2533 48.7737 26.9638C48.5525 25.6744 47.8825 24.5046 46.8823 23.6613C45.882 22.8181 44.6159 22.3556 43.3076 22.3556C41.9993 22.3556 40.7332 22.8181 39.7329 23.6613C38.7326 24.5046 38.0627 25.6744 37.8415 26.9638C37.6202 28.2533 37.862 29.5795 38.5239 30.708C39.1859 31.8365 40.2255 32.6946 41.4589 33.1307V35.2937C41.4589 35.784 41.2642 36.2542 40.9175 36.6009C40.5708 36.9476 40.1006 37.1424 39.6103 37.1424H32.2156V1.87622C33.4312 0.993317 34.8492 0.430299 36.3394 0.238966C37.8295 0.0476318 39.3438 0.234127 40.743 0.781294C42.1421 1.32846 43.3812 2.21873 44.3463 3.37018C45.3113 4.52164 45.9713 5.89731 46.2654 7.37062L46.7276 9.68891L48.2287 9.98841C50.4897 10.4419 52.5239 11.6643 53.9858 13.4477C55.4477 15.2312 56.2471 17.4658 56.2482 19.7718V20.5039C56.2482 23.1883 55.1021 25.6064 53.2719 27.2961C55.5073 28.4039 57.3423 30.1803 58.5219 32.3788C59.7014 34.5772 60.167 37.0885 59.854 39.5637C59.5409 42.0389 58.4648 44.3551 56.775 46.1907C55.0852 48.0262 52.8658 49.2899 50.4249 49.8061L50.2881 50.4902C49.7918 52.9828 48.4462 55.2262 46.4808 56.8376C44.5155 58.4491 42.052 59.3289 39.5104 59.327ZM23.257 0.168003C25.224 0.168003 27.0393 0.800265 28.5183 1.87622V14.9578H26.3553C25.9192 13.7243 25.0611 12.6847 23.9327 12.0227C22.8043 11.3607 21.4781 11.119 20.1887 11.3402C18.8993 11.5614 17.7295 12.2314 16.8863 13.2317C16.043 14.232 15.5805 15.4982 15.5805 16.8065C15.5805 18.1148 16.043 19.381 16.8863 20.3813C17.7295 21.3816 18.8993 22.0515 20.1887 22.2728C21.4781 22.494 22.8043 22.2523 23.9327 21.5903C25.0611 20.9283 25.9192 19.8887 26.3553 18.6552H28.5183V56.5577C27.0718 57.8408 25.3125 58.7198 23.4179 59.1057C21.5233 59.4917 19.5603 59.3711 17.7272 58.756C15.8941 58.141 14.2557 57.0532 12.9772 55.6026C11.6988 54.152 10.8256 52.3898 10.4457 50.4939L10.3089 49.8061C8.21487 49.3627 6.27738 48.3676 4.69704 46.9238C3.11671 45.48 1.95098 43.6401 1.32054 41.5945C0.69009 39.5489 0.617842 37.3719 1.11127 35.289C1.6047 33.2061 2.64588 31.2929 4.12701 29.7475H17.4263C17.9166 29.7475 18.3868 29.9423 18.7335 30.289C19.0802 30.6357 19.275 31.1059 19.275 31.5962V33.7593C18.0415 34.1954 17.0019 35.0535 16.34 36.182C15.678 37.3104 15.4363 38.6366 15.6575 39.9261C15.8787 41.2156 16.5487 42.3853 17.5489 43.2286C18.5492 44.0719 19.8153 44.5344 21.1236 44.5344C22.4319 44.5344 23.6981 44.0719 24.6983 43.2286C25.6986 42.3853 26.3685 41.2156 26.5897 39.9261C26.811 38.6366 26.5692 37.3104 25.9073 36.182C25.2453 35.0535 24.2057 34.1954 22.9723 33.7593V31.5962C22.9723 30.1253 22.388 28.7146 21.3479 27.6745C20.3078 26.6344 18.8972 26.0501 17.4263 26.0501H6.33431C5.13432 24.4501 4.48565 22.504 4.48565 20.5039V19.7718C4.48673 17.4658 5.28613 15.2312 6.74804 13.4477C8.20994 11.6643 10.2442 10.4419 12.5052 9.98841L14.0063 9.69261L14.4684 7.37062C14.8726 5.33801 15.9698 3.50873 17.5727 2.19512C19.1755 0.881512 21.1846 0.165027 23.257 0.168003ZM21.1236 14.9578C21.6139 14.9578 22.0841 15.1525 22.4308 15.4992C22.7775 15.8459 22.9723 16.3162 22.9723 16.8065C22.9723 17.2968 22.7775 17.767 22.4308 18.1137C22.0841 18.4604 21.6139 18.6552 21.1236 18.6552C20.6333 18.6552 20.1631 18.4604 19.8164 18.1137C19.4697 17.767 19.275 17.2968 19.275 16.8065C19.275 16.3162 19.4697 15.8459 19.8164 15.4992C20.1631 15.1525 20.6333 14.9578 21.1236 14.9578ZM21.1236 40.8398C21.6139 40.8398 22.0841 40.6451 22.4308 40.2984C22.7775 39.9517 22.9723 39.4814 22.9723 38.9911C22.9723 38.5008 22.7775 38.0306 22.4308 37.6839C22.0841 37.3372 21.6139 37.1424 21.1236 37.1424C20.6333 37.1424 20.1631 37.3372 19.8164 37.6839C19.4697 38.0306 19.275 38.5008 19.275 38.9911C19.275 39.4814 19.4697 39.9517 19.8164 40.2984C20.1631 40.6451 20.6333 40.8398 21.1236 40.8398ZM43.3076 29.7475C43.7979 29.7475 44.2681 29.5528 44.6148 29.206C44.9615 28.8593 45.1562 28.3891 45.1562 27.8988C45.1562 27.4085 44.9615 26.9383 44.6148 26.5916C44.2681 26.2449 43.7979 26.0501 43.3076 26.0501C42.8173 26.0501 42.3471 26.2449 42.0004 26.5916C41.6537 26.9383 41.4589 27.4085 41.4589 27.8988C41.4589 28.3891 41.6537 28.8593 42.0004 29.206C42.3471 29.5528 42.8173 29.7475 43.3076 29.7475Z" fill="white"/>
</svg>
