<svg width="60" height="60" viewBox="0 0 60 60" fill="none" xmlns="http://www.w3.org/2000/svg">
<path d="M29.5756 23.8304C32.7137 23.8304 35.7233 22.5838 37.9423 20.3649C40.1612 18.1459 41.4079 15.1363 41.4079 11.9982C41.4079 8.86013 40.1612 5.85056 37.9423 3.63159C35.7233 1.41262 32.7137 0.166016 29.5756 0.166016C26.4375 0.166016 23.428 1.41262 21.209 3.63159C18.99 5.85056 17.7434 8.86013 17.7434 11.9982C17.7434 15.1363 18.99 18.1459 21.209 20.3649C23.428 22.5838 26.4375 23.8304 29.5756 23.8304ZM10.3483 32.7046C12.3096 32.7046 14.1906 31.9255 15.5774 30.5386C16.9643 29.1518 17.7434 27.2708 17.7434 25.3095C17.7434 23.3482 16.9643 21.4672 15.5774 20.0803C14.1906 18.6935 12.3096 17.9143 10.3483 17.9143C8.38699 17.9143 6.50601 18.6935 5.11915 20.0803C3.7323 21.4672 2.95317 23.3482 2.95317 25.3095C2.95317 27.2708 3.7323 29.1518 5.11915 30.5386C6.50601 31.9255 8.38699 32.7046 10.3483 32.7046ZM56.1981 25.3095C56.1981 27.2708 55.419 29.1518 54.0321 30.5386C52.6453 31.9255 50.7643 32.7046 48.803 32.7046C46.8417 32.7046 44.9607 31.9255 43.5738 30.5386C42.187 29.1518 41.4079 27.2708 41.4079 25.3095C41.4079 23.3482 42.187 21.4672 43.5738 20.0803C44.9607 18.6935 46.8417 17.9143 48.803 17.9143C50.7643 17.9143 52.6453 18.6935 54.0321 20.0803C55.419 21.4672 56.1981 23.3482 56.1981 25.3095ZM29.5756 26.7885C33.4983 26.7885 37.2602 28.3467 40.0339 31.1205C42.8076 33.8942 44.3659 37.6561 44.3659 41.5788V59.3271H14.7854V41.5788C14.7854 37.6561 16.3436 33.8942 19.1173 31.1205C21.8911 28.3467 25.653 26.7885 29.5756 26.7885ZM8.86927 41.5788C8.86927 39.5288 9.16508 37.5499 9.72119 35.6804L9.21832 35.7218C6.68292 36.0002 4.3395 37.2047 2.63743 39.1044C0.935368 41.0041 -0.0055447 43.4652 -0.00488246 46.0158V59.3271H8.86927V41.5788ZM59.1562 59.3271V46.0158C59.1565 43.3783 58.1502 40.8401 56.3427 38.9194C54.5352 36.9986 52.0627 35.8401 49.4301 35.6804C49.9832 37.5499 50.282 39.5288 50.282 41.5788V59.3271H59.1562Z" fill="white"/>
</svg>
